<svg width="39" height="66" viewBox="0 0 39 66" fill="none" xmlns="http://www.w3.org/2000/svg">
<path d="M11.2236 18.7896H19.1673C21.0995 18.7896 23.648 18.7896 24.964 19.5931C26.4072 20.4566 27.5403 22.0277 27.5403 24.1905C27.5403 26.5332 26.3157 28.2923 24.2881 29.1239V29.1878C26.9876 29.7435 28.4587 31.7784 28.4587 34.4929C28.4587 37.7311 26.1567 40.8174 21.8032 40.8174H11.2236V18.7896ZM14.1379 28.2563H19.9704C23.2822 28.2563 24.634 27.053 24.634 24.7383C24.634 21.684 22.487 21.2521 19.9704 21.2521H14.1379V28.2563ZM14.1379 38.3428H21.4414C23.9541 38.3428 25.5524 36.7995 25.5524 34.3969C25.5524 31.5264 23.2504 30.727 20.7973 30.727H14.1379V38.3428Z" fill="white"/>
<path d="M35.9131 29.8077C35.9131 39.0586 28.4545 46.5585 19.2506 46.5585C10.0506 46.5585 2.59198 39.0586 2.59198 29.8077C2.59198 20.5568 10.0506 13.0569 19.2506 13.0569C28.4545 13.0609 35.9131 20.5608 35.9131 29.8077ZM19.2545 10.5063C8.65908 10.5063 0.0673828 19.1456 0.0673828 29.7997C0.0673828 40.4539 8.65908 49.0931 19.2545 49.0931C29.854 49.0931 38.4457 40.4539 38.4457 29.7997C38.4457 19.1456 29.854 10.5063 19.2545 10.5063Z" fill="white"/>
<path d="M38.4023 53.167H0.103516V55.6976H38.4023V53.167Z" fill="white"/>
<path d="M37.2056 50.3805C37.2533 50.3805 37.297 50.3765 37.3408 50.3765C37.3805 50.3725 37.4203 50.3645 37.4521 50.3525C37.4879 50.3365 37.5117 50.3125 37.5316 50.2845C37.5515 50.2526 37.5594 50.2126 37.5594 50.1606C37.5594 50.1166 37.5515 50.0767 37.5356 50.0527C37.5197 50.0247 37.4958 50.0047 37.468 49.9927C37.4402 49.9767 37.4123 49.9687 37.3726 49.9607C37.3368 49.9567 37.305 49.9567 37.2652 49.9567H36.9909V50.3845H37.2056V50.3805ZM37.297 49.7808C37.4561 49.7808 37.5714 49.8128 37.6509 49.8768C37.7264 49.9407 37.7662 50.0367 37.7662 50.1686C37.7662 50.2925 37.7304 50.3765 37.6668 50.4365C37.5992 50.4924 37.5157 50.5244 37.4123 50.5364L37.794 51.1281H37.5714L37.2056 50.5484H36.9869V51.1281H36.7762V49.7848H37.297V49.7808ZM36.3588 50.8402C36.4025 50.9602 36.4701 51.0681 36.5575 51.1561C36.641 51.244 36.7404 51.312 36.8557 51.364C36.967 51.4119 37.0943 51.4359 37.2255 51.4359C37.3607 51.4359 37.4839 51.4119 37.5952 51.364C37.7105 51.312 37.8099 51.244 37.8934 51.1561C37.9769 51.0681 38.0445 50.9642 38.0882 50.8402C38.1359 50.7203 38.1638 50.5924 38.1638 50.4525C38.1638 50.3125 38.1399 50.1846 38.0882 50.0647C38.0405 49.9447 37.9729 49.8408 37.8934 49.7528C37.8059 49.6649 37.7065 49.5969 37.5952 49.549C37.4839 49.501 37.3567 49.473 37.2255 49.473C37.0943 49.473 36.967 49.501 36.8557 49.549C36.7404 49.6009 36.6371 49.6689 36.5575 49.7528C36.4701 49.8408 36.4065 49.9447 36.3588 50.0647C36.311 50.1846 36.2872 50.3085 36.2872 50.4525C36.2832 50.5884 36.3071 50.7203 36.3588 50.8402ZM36.1679 49.9967C36.2276 49.8568 36.311 49.7408 36.4144 49.6369C36.5178 49.533 36.641 49.457 36.7802 49.397C36.9193 49.3371 37.0704 49.3091 37.2215 49.3091C37.3805 49.3091 37.5276 49.3371 37.6708 49.397C37.8059 49.457 37.9292 49.533 38.0286 49.6369C38.132 49.7408 38.2194 49.8608 38.2751 49.9967C38.3387 50.1366 38.3665 50.2885 38.3665 50.4525C38.3665 50.6164 38.3387 50.7683 38.2751 50.9082C38.2154 51.0521 38.132 51.1721 38.0286 51.276C37.9252 51.3839 37.8059 51.4599 37.6708 51.5199C37.5276 51.5758 37.3805 51.6038 37.2215 51.6038C37.0664 51.6038 36.9193 51.5758 36.7802 51.5199C36.641 51.4599 36.5178 51.3839 36.4144 51.276C36.311 51.1721 36.2276 51.0521 36.1679 50.9082C36.1043 50.7683 36.0804 50.6164 36.0804 50.4525C36.0765 50.2885 36.1043 50.1366 36.1679 49.9967Z" fill="white"/>
<path d="M4.74701 2.02289C4.65561 1.87497 4.54431 1.74704 4.40911 1.6391C4.27391 1.52716 4.11881 1.44321 3.94791 1.37924C3.77691 1.31927 3.59801 1.28729 3.41121 1.28729C3.06921 1.28729 2.77901 1.35525 2.53651 1.48718C2.29791 1.61911 2.10311 1.79901 1.95601 2.02289C1.80891 2.24676 1.6976 2.50262 1.63 2.79047C1.5624 3.0783 1.52661 3.3741 1.52661 3.678C1.52661 3.9698 1.5584 4.2537 1.63 4.5295C1.6976 4.8054 1.80491 5.0532 1.95601 5.2771C2.10311 5.497 2.29791 5.6769 2.53651 5.8088C2.77501 5.9407 3.06531 6.0087 3.41121 6.0087C3.87631 6.0087 4.24211 5.8648 4.50051 5.5809C4.76291 5.2931 4.92201 4.9173 4.98161 4.4496H6.45661C6.41691 4.8853 6.3175 5.2771 6.1545 5.6289C5.9914 5.9807 5.78071 6.2805 5.51431 6.5244C5.24801 6.7723 4.93791 6.9602 4.58401 7.0921C4.23021 7.22 3.83661 7.288 3.41121 7.288C2.88241 7.288 2.40531 7.196 1.97991 7.0081C1.55451 6.8242 1.20061 6.5684 0.906406 6.2406C0.616206 5.9167 0.393506 5.533 0.238506 5.0932C0.0834063 4.6534 0.00390625 4.1817 0.00390625 3.674C0.00390625 3.1543 0.0794063 2.67053 0.238506 2.22678C0.393506 1.78302 0.616206 1.39123 0.906406 1.06342C1.19661 0.7316 1.55451 0.47174 1.97991 0.28384C2.40131 0.0959502 2.87841 0 3.41121 0C3.79281 0 4.15461 0.0559699 4.49261 0.16391C4.83051 0.27585 5.13661 0.43576 5.40301 0.64764C5.66941 0.85953 5.89201 1.11938 6.06701 1.43121C6.24191 1.74304 6.35321 2.10284 6.39701 2.50262H4.92201C4.89411 2.32672 4.83851 2.16681 4.74701 2.02289Z" fill="white"/>
<path d="M8.44016 5.9168C8.64686 6.1167 8.94506 6.2206 9.33076 6.2206C9.60906 6.2206 9.84756 6.1527 10.0504 6.0128C10.2492 5.8728 10.3724 5.72491 10.4201 5.56901H11.6328C11.4379 6.1727 11.1398 6.60841 10.7382 6.86831C10.3366 7.12811 9.85156 7.26011 9.28306 7.26011C8.88946 7.26011 8.53156 7.1961 8.21756 7.0682C7.89946 6.9402 7.63306 6.7603 7.41046 6.5285C7.19176 6.2966 7.02076 6.0168 6.90156 5.6889C6.78226 5.3651 6.72266 5.00531 6.72266 4.61751C6.72266 4.24171 6.78226 3.8899 6.90546 3.5661C7.02876 3.2423 7.20366 2.95843 7.43026 2.72256C7.65696 2.48669 7.92726 2.29881 8.24136 2.16288C8.55546 2.02696 8.90136 1.95898 9.28306 1.95898C9.70846 1.95898 10.0822 2.04294 10.4003 2.20685C10.7183 2.37476 10.9767 2.59465 11.1795 2.87449C11.3823 3.15431 11.5294 3.4742 11.6208 3.83C11.7123 4.1858 11.7441 4.56161 11.7162 4.95331H8.09826C8.11816 5.38911 8.22946 5.7169 8.44016 5.9168ZM9.99466 3.2663C9.82766 3.0864 9.57726 2.99441 9.24326 2.99441C9.02456 2.99441 8.84176 3.0304 8.69456 3.1064C8.54746 3.1823 8.43216 3.27431 8.34476 3.38221C8.25726 3.49411 8.19766 3.6101 8.16186 3.734C8.12606 3.8579 8.10616 3.9659 8.09826 4.0658H10.3406C10.277 3.714 10.1617 3.4462 9.99466 3.2663Z" fill="white"/>
<path d="M13.6488 2.0827V3.0182H13.6687C13.7323 2.86227 13.8197 2.71835 13.9311 2.58243C14.0424 2.4505 14.1656 2.33456 14.3088 2.24261C14.4519 2.15067 14.603 2.07471 14.766 2.02274C14.929 1.97076 15.096 1.94678 15.2709 1.94678C15.3623 1.94678 15.4617 1.96277 15.5731 1.99475V3.282C15.5095 3.27 15.4299 3.2581 15.3385 3.2501C15.2471 3.2421 15.1596 3.2341 15.0761 3.2341C14.8256 3.2341 14.6109 3.278 14.436 3.362C14.2611 3.446 14.1219 3.5619 14.0146 3.7098C13.9072 3.8577 13.8317 4.0256 13.7879 4.2215C13.7442 4.4174 13.7203 4.6293 13.7203 4.8572V7.1319H12.3447V2.0827H13.6488Z" fill="white"/>
<path d="M19.2547 2.08285V3.0103H18.2449V5.509C18.2449 5.7448 18.2846 5.9008 18.3602 5.9767C18.4357 6.0527 18.5947 6.0926 18.8253 6.0926C18.9048 6.0926 18.9764 6.0887 19.048 6.0847C19.1195 6.0767 19.1871 6.0687 19.2507 6.0567V7.1281C19.1354 7.1481 19.0042 7.1601 18.8611 7.1681C18.718 7.1761 18.5788 7.1801 18.4436 7.1801C18.229 7.1801 18.0262 7.1641 17.8393 7.1361C17.6485 7.1081 17.4815 7.0521 17.3344 6.9642C17.1873 6.8802 17.076 6.7603 16.9885 6.6044C16.905 6.4485 16.8613 6.2446 16.8613 5.9887V3.0143H16.0264V2.08685H16.8613V0.575684H18.2369V2.08685H19.2547V2.08285Z" fill="white"/>
<path d="M20.0576 1.30304V0.159668H21.4332V1.30304H20.0576ZM21.4332 2.08261V7.1238H20.0576V2.08261H21.4332Z" fill="white"/>
<path d="M21.9824 3.0101V2.08261H22.8054V1.69083C22.8054 1.24307 22.9446 0.875268 23.2229 0.587428C23.5012 0.299588 23.9226 0.159668 24.4832 0.159668C24.6064 0.159668 24.7297 0.163668 24.8529 0.175658C24.9762 0.183658 25.0955 0.195648 25.2108 0.199648V1.23508C25.0478 1.21509 24.8808 1.20709 24.7058 1.20709C24.519 1.20709 24.3838 1.25107 24.3043 1.33902C24.2248 1.42697 24.185 1.57489 24.185 1.78278V2.08661H25.1352V3.0141H24.185V7.1318H22.8054V3.0141H21.9824V3.0101Z" fill="white"/>
<path d="M26.0654 1.30304V0.159668H27.4411V1.30304H26.0654ZM27.445 2.08261V7.1238H26.0654V2.08261H27.445Z" fill="white"/>
<path d="M29.6159 5.9165C29.8226 6.1164 30.1208 6.2203 30.5065 6.2203C30.7848 6.2203 31.0233 6.1524 31.2261 6.0124C31.4249 5.8725 31.5481 5.7246 31.5959 5.5687H32.8085C32.6137 6.1724 32.3155 6.6081 31.9179 6.868C31.5163 7.1278 31.0313 7.2598 30.4628 7.2598C30.0691 7.2598 29.7113 7.1958 29.3972 7.0679C29.0792 6.9399 28.8128 6.76 28.5902 6.5282C28.3715 6.2963 28.2005 6.0164 28.0813 5.6886C27.962 5.3648 27.9023 5.005 27.9023 4.6172C27.9023 4.2414 27.966 3.8896 28.0852 3.5658C28.2085 3.23 28.3834 2.95013 28.61 2.71426C28.8367 2.47839 29.107 2.2905 29.4211 2.15457C29.7352 2.01865 30.0811 1.95068 30.4628 1.95068C30.8882 1.95068 31.2619 2.03464 31.5799 2.19855C31.898 2.36646 32.1564 2.58633 32.3592 2.86618C32.562 3.146 32.7091 3.4659 32.8005 3.8217C32.892 4.1775 32.9238 4.5533 32.8999 4.945H29.2819C29.2978 5.3888 29.4092 5.7166 29.6159 5.9165ZM31.1744 3.266C31.0114 3.0861 30.757 2.99411 30.423 2.99411C30.2043 2.99411 30.0214 3.0301 29.8743 3.106C29.7272 3.182 29.6119 3.274 29.5245 3.3819C29.437 3.4938 29.3774 3.6098 29.3416 3.7337C29.3058 3.8576 29.2859 3.9656 29.278 4.0655H31.5163C31.4527 3.7137 31.3374 3.4459 31.1744 3.266Z" fill="white"/>
<path d="M37.0777 6.4846C36.9147 6.7564 36.704 6.9563 36.4416 7.0763C36.1792 7.1962 35.885 7.2562 35.555 7.2562C35.1813 7.2562 34.8513 7.1842 34.565 7.0363C34.2788 6.8884 34.0442 6.6925 33.8613 6.4406C33.6784 6.1887 33.5393 5.9009 33.4438 5.5771C33.3484 5.2533 33.3047 4.9135 33.3047 4.5616C33.3047 4.2218 33.3524 3.898 33.4438 3.5822C33.5353 3.2664 33.6784 2.99051 33.8613 2.74664C34.0442 2.50677 34.2788 2.31088 34.5531 2.16696C34.8314 2.01904 35.1534 1.94708 35.5232 1.94708C35.8214 1.94708 36.1036 2.01105 36.37 2.13898C36.6404 2.26691 36.8511 2.4508 37.0061 2.69867H37.026V0.164062H38.4016V7.1282H37.0936V6.4846H37.0777ZM37.0181 3.99C36.9783 3.7981 36.9147 3.6302 36.8193 3.4822C36.7239 3.3343 36.6046 3.2184 36.4535 3.1264C36.3064 3.0345 36.1156 2.99051 35.8929 2.99051C35.6703 2.99051 35.4755 3.0345 35.3204 3.1264C35.1654 3.2184 35.0421 3.3383 34.9467 3.4862C34.8552 3.6342 34.7877 3.8061 34.7439 3.998C34.7002 4.1898 34.6803 4.3897 34.6803 4.5976C34.6803 4.7935 34.7042 4.9894 34.7479 5.1813C34.7916 5.3772 34.8672 5.5491 34.9666 5.705C35.066 5.8569 35.1932 5.9809 35.3443 6.0768C35.4953 6.1728 35.6782 6.2167 35.8929 6.2167C36.1195 6.2167 36.3064 6.1728 36.4615 6.0808C36.6125 5.9889 36.7358 5.8689 36.8272 5.713C36.9187 5.5611 36.9823 5.3852 37.0221 5.1933C37.0618 4.9974 37.0817 4.7975 37.0817 4.5896C37.0777 4.3817 37.0578 4.1819 37.0181 3.99Z" fill="white"/>
<path d="M3.4629 60.6664C3.3953 60.1787 2.9302 59.8069 2.3974 59.8069C1.4353 59.8069 1.0735 60.6305 1.0735 61.49C1.0735 62.3055 1.4353 63.1291 2.3974 63.1291C3.0534 63.1291 3.4232 62.6773 3.5027 62.0297H4.5443C4.433 63.253 3.5941 64.0366 2.3974 64.0366C0.8866 64.0366 0 62.9012 0 61.49C0 60.0348 0.8866 58.8994 2.3974 58.8994C3.4709 58.8994 4.3694 59.5311 4.5006 60.6664H3.4629Z" fill="white"/>
<path d="M6.78291 60.2749C7.89611 60.2749 8.61181 61.0145 8.61181 62.1499C8.61181 63.2773 7.89611 64.0168 6.78291 64.0168C5.67761 64.0168 4.95801 63.2733 4.95801 62.1499C4.95801 61.0185 5.67761 60.2749 6.78291 60.2749ZM6.78291 63.2852C7.44691 63.2852 7.64171 62.7136 7.64171 62.1539C7.64171 61.5822 7.44291 61.0145 6.78291 61.0145C6.12691 61.0145 5.92811 61.5862 5.92811 62.1539C5.92811 62.7136 6.12691 63.2852 6.78291 63.2852Z" fill="white"/>
<path d="M9.21191 60.3665H10.1343V61.0261H10.1502C10.3251 60.5783 10.8062 60.2705 11.2793 60.2705C11.3469 60.2705 11.4304 60.2825 11.49 60.3025V61.21C11.3986 61.19 11.2555 61.178 11.1402 61.178C10.4285 61.178 10.182 61.6937 10.182 62.3174V63.9165H9.21191V60.3665Z" fill="white"/>
<path d="M11.8673 60.3708H12.7896V60.8226H12.8016C13.0322 60.4468 13.4138 60.2749 13.8512 60.2749C14.9604 60.2749 15.4574 61.1744 15.4574 62.1819C15.4574 63.1293 14.9405 64.0168 13.9068 64.0168C13.4854 64.0168 13.0799 63.8329 12.8493 63.4811H12.8334V65.1722H11.8633V60.3708H11.8673ZM14.4873 62.1579C14.4873 61.5942 14.2607 61.0105 13.6405 61.0105C13.0043 61.0105 12.8016 61.5822 12.8016 62.1579C12.8016 62.7335 13.0202 63.2852 13.6484 63.2852C14.2845 63.2852 14.4873 62.7335 14.4873 62.1579Z" fill="white"/>
<path d="M17.5846 60.2749C18.6978 60.2749 19.4174 61.0145 19.4174 62.1499C19.4174 63.2773 18.6978 64.0168 17.5846 64.0168C16.4793 64.0168 15.7637 63.2733 15.7637 62.1499C15.7637 61.0185 16.4793 60.2749 17.5846 60.2749ZM17.5846 63.2852C18.2485 63.2852 18.4473 62.7136 18.4473 62.1539C18.4473 61.5822 18.2485 61.0145 17.5846 61.0145C16.9286 61.0145 16.7298 61.5862 16.7298 62.1539C16.7338 62.7136 16.9326 63.2852 17.5846 63.2852Z" fill="white"/>
<path d="M20.0176 60.3665H20.94V61.0261H20.9559C21.1309 60.5783 21.6119 60.2705 22.0811 60.2705C22.1487 60.2705 22.2322 60.2825 22.2918 60.3025V61.21C22.2043 61.19 22.0612 61.178 21.9419 61.178C21.2303 61.178 20.9838 61.6937 20.9838 62.3174V63.9165H20.0137V60.3665H20.0176Z" fill="white"/>
<path d="M22.5781 61.4622C22.6337 60.5468 23.4448 60.2749 24.2399 60.2749C24.9436 60.2749 25.7905 60.4308 25.7905 61.2823V63.1293C25.7905 63.4532 25.8223 63.773 25.9137 63.9209H24.9277C24.8959 63.809 24.8641 63.693 24.8602 63.5771C24.554 63.9009 24.1048 64.0168 23.6714 64.0168C23.0035 64.0168 22.4707 63.681 22.4707 62.9534C22.4707 62.1499 23.071 61.958 23.6714 61.874C24.2678 61.7861 24.8204 61.8061 24.8204 61.4063C24.8204 60.9865 24.5302 60.9265 24.1922 60.9265C23.8225 60.9265 23.5839 61.0785 23.5481 61.4622H22.5781ZM24.8164 62.1859C24.6494 62.3298 24.3115 62.3378 24.0093 62.3937C23.7072 62.4537 23.4368 62.5576 23.4368 62.9174C23.4368 63.2812 23.7151 63.3692 24.0332 63.3692C24.7886 63.3692 24.8204 62.7655 24.8204 62.5536V62.1859H24.8164Z" fill="white"/>
<path d="M27.747 60.3705H28.4587V61.0221H27.747V62.7811C27.747 63.1129 27.8305 63.1929 28.1565 63.1929C28.2599 63.1929 28.3553 63.1849 28.4587 63.1649V63.9285C28.2956 63.9565 28.081 63.9645 27.8901 63.9645C27.2977 63.9645 26.7769 63.8246 26.7769 63.1209V61.0261H26.1885V60.3745H26.7769V59.311H27.747V60.3705Z" fill="white"/>
<path d="M30.1605 59.8231H29.1904V59.0195H30.1605V59.8231ZM29.1904 60.3708H30.1605V63.9208H29.1904V60.3708Z" fill="white"/>
<path d="M32.6334 60.2749C33.7466 60.2749 34.4663 61.0145 34.4663 62.1499C34.4663 63.2773 33.7466 64.0168 32.6334 64.0168C31.5281 64.0168 30.8125 63.2733 30.8125 62.1499C30.8125 61.0185 31.5281 60.2749 32.6334 60.2749ZM32.6334 63.2852C33.2974 63.2852 33.4962 62.7136 33.4962 62.1539C33.4962 61.5822 33.2974 61.0145 32.6334 61.0145C31.9774 61.0145 31.7786 61.5862 31.7786 62.1539C31.7786 62.7136 31.9774 63.2852 32.6334 63.2852Z" fill="white"/>
<path d="M35.0898 60.3708H36.0122V60.8666H36.0321C36.2786 60.4668 36.7 60.2749 37.1135 60.2749C38.1432 60.2749 38.4056 60.8586 38.4056 61.7381V63.9209H37.4356V61.914C37.4356 61.3303 37.2646 61.0425 36.8153 61.0425C36.2866 61.0425 36.0639 61.3383 36.0639 62.0619V63.9249H35.0938V60.3708H35.0898Z" fill="white"/>
</svg>
