<svg width="25" height="24" viewBox="0 0 25 24" fill="none" xmlns="http://www.w3.org/2000/svg">
<path d="M2.5 3H5L7 17H17.5M17.5 17C16.3954 17 15.5 17.8954 15.5 19C15.5 20.1046 16.3954 21 17.5 21C18.6046 21 19.5 20.1046 19.5 19C19.5 17.8954 18.6046 17 17.5 17ZM6.57142 14H18.5L21.5 5H5.28571M11.5 19C11.5 20.1046 10.6046 21 9.5 21C8.39543 21 7.5 20.1046 7.5 19C7.5 17.8954 8.39543 17 9.5 17C10.6046 17 11.5 17.8954 11.5 19Z" stroke="black" stroke-width="1.5" stroke-linecap="round" stroke-linejoin="round"/>
</svg>
