<svg width="180" height="26" viewBox="0 0 180 26" fill="none" xmlns="http://www.w3.org/2000/svg">
<path d="M24.3776 15.8109C25.2975 13.4081 26.2476 11.0076 27.2278 8.60716C27.6635 11.01 28.1293 13.4105 28.6275 15.8109H24.3799H24.3776ZM25.3393 0.55957C21.4995 8.79871 18.0097 17.0548 14.8721 25.294H19.7337C20.4405 25.294 21.0894 24.8017 21.3466 24.0816C21.7266 23.0099 22.1136 21.9406 22.5052 20.8689H29.6934C29.9437 21.943 30.1986 23.0196 30.4605 24.0937C30.6343 24.809 31.2298 25.294 31.9296 25.294H36.9303C34.6988 17.0524 32.8195 8.79871 31.2877 0.55957H25.3416H25.3393Z" fill="white"/>
<path d="M39.8594 25.2959H45.7406C46.1972 17.1004 47.0013 8.89522 48.1506 0.702148H42.2694C41.12 8.89522 40.3182 17.1028 39.8594 25.2959Z" fill="white"/>
<path d="M64.0802 9.44852C63.8647 11.415 62.5717 12.6467 60.5765 12.6467H57.6683C57.8815 10.5033 58.1155 8.35983 58.3774 6.21639H61.2531C63.2159 6.21639 64.3235 7.27114 64.0895 9.3782C64.0872 9.40245 64.0848 9.42427 64.0802 9.44852ZM70.0287 9.13088C70.0356 9.07269 70.0426 9.0145 70.0472 8.95631C70.3253 6.46129 69.8502 4.56275 68.7565 3.19279C67.4982 1.57794 65.306 0.700195 62.2333 0.700195H51.6132C51.356 2.53812 51.115 4.37604 50.8925 6.21639H52.5262C51.7546 12.5764 51.1915 18.9388 50.8369 25.2964H56.6857C56.8271 22.7577 57.0032 20.2166 57.2118 17.6731H59.3043C60.2636 19.9135 61.2485 22.154 62.2588 24.3944C62.5114 24.9521 63.0351 25.2964 63.626 25.2964H69.301C67.8991 22.3237 66.5412 19.3486 65.2296 16.3735C67.7624 15.0714 69.6255 12.7873 70.0287 9.13331" fill="white"/>
<path d="M85.7258 9.62552C85.501 11.6986 84.1338 12.9983 82.076 12.9983H80.016C80.2407 10.7021 80.4794 8.51258 80.7598 6.21639H82.7851C84.9101 6.21639 85.9853 7.27114 85.735 9.51884C85.7327 9.55278 85.7281 9.58915 85.7234 9.6231M83.8001 0.700195H73.998C73.7454 2.50175 73.4951 4.41241 73.2773 6.21639H74.911C74.1324 12.6103 73.5785 18.9049 73.2217 25.2964H79.0705C79.2026 22.9202 79.3648 20.544 79.5548 18.1653H81.8095C86.8241 18.095 90.9906 15.2824 91.6325 9.3782C91.6371 9.33213 91.6418 9.28364 91.6487 9.23757C92.2698 3.72137 89.1994 0.700195 83.8001 0.700195Z" fill="white"/>
<path d="M106.552 10.045H100.049C100.385 6.92925 100.772 3.81351 101.21 0.700195H95.3289C94.1795 8.89569 93.3778 17.1009 92.9189 25.2964H98.8002C98.9763 22.1346 99.2034 18.9727 99.4838 15.8109H105.986C105.706 18.9727 105.479 22.137 105.303 25.2964H111.216C111.673 17.1009 112.477 8.89569 113.626 0.700195H107.713C107.275 3.81351 106.89 6.92925 106.552 10.045Z" fill="white"/>
<path d="M152.063 13.0686C149.855 8.80108 147.739 4.53118 145.716 0.268555C142.963 0.746221 143.084 0.724399 140.331 1.20449C139.218 9.23025 138.437 17.2706 137.99 25.2963H143.774C144.013 20.9998 144.349 16.7008 144.778 12.4018C146.856 16.4534 149.018 20.5051 151.268 24.5544C151.523 25.0151 151.987 25.2963 152.487 25.2963H156.911C157.367 17.1033 158.171 8.89564 159.321 0.702576H153.539C152.962 4.82214 152.471 8.94656 152.068 13.0686" fill="white"/>
<path d="M7.05614 10.7482C7.20908 9.29576 7.37361 7.84337 7.54972 6.39097H18.2579C18.4873 4.49485 18.7353 2.59631 18.9994 0.700195H0.776291C0.509803 2.59631 0.261853 4.49485 0.032442 6.39097H1.66613C0.906059 12.6928 0.352228 18.997 0 25.2964H5.88127C6.05044 22.2631 6.26826 19.2298 6.53011 16.1965H12.8702C13.7647 16.1965 14.5549 15.4181 14.6429 14.458C14.7588 13.2214 14.8816 11.9848 15.0114 10.7506H7.05614V10.7482Z" fill="white"/>
<path d="M168.022 19.7462C168.129 18.3423 168.242 16.936 168.367 15.5297H174.809C175.701 15.5297 176.496 14.7513 176.587 13.7912C176.698 12.6249 176.816 11.4586 176.941 10.2923H168.882C169.025 8.94661 169.181 7.59847 169.343 6.25034H179.275C179.5 4.40029 179.741 2.55024 180 0.700195H162.618C162.359 2.55024 162.115 4.39787 161.893 6.25034H163.526C162.757 12.5982 162.196 18.9509 161.842 25.2964H177.722C177.826 23.4463 177.945 21.5963 178.084 19.7462H168.02H168.022Z" fill="white"/>
<path d="M129.928 13.5053C129.917 13.6338 129.903 13.7624 129.891 13.8933C129.481 18.1462 127.694 20.0278 124.946 20.0278C122.198 20.0278 120.515 17.4261 120.925 13.1756C120.937 13.0471 120.951 12.9186 120.963 12.7901C121.387 8.53713 123.581 5.97179 126.29 5.97179C127.618 5.97179 128.67 6.59494 129.346 7.7297L128.526 8.56137C129.21 9.7422 130.141 11.3692 129.928 13.5078M133.038 4.0781L133.854 3.25128C132.264 1.34304 129.947 0.24707 127.078 0.24707C120.944 0.24707 115.681 5.40926 114.954 12.7537C114.938 12.9307 114.919 13.1053 114.903 13.2798C114.191 20.6606 118.381 25.7525 124.547 25.7525C130.714 25.7525 135.191 21.2717 135.902 13.9272C135.918 13.7502 135.935 13.5757 135.953 13.4011C136.345 9.46821 134.862 6.28215 133.04 4.07567" fill="white"/>
</svg>
