<svg width="289" height="281" viewBox="0 0 289 281" fill="none" xmlns="http://www.w3.org/2000/svg">
<path d="M110.825 277.529C90.571 283.105 68.1854 281.098 49.6103 271.606C28.4395 260.791 12.4326 241.024 4.99134 218.382C0.852243 205.789 -0.770104 191.794 2.33699 178.609C5.22785 166.329 11.9991 155.224 19.5395 145.008C35.1207 123.888 54.2674 105.673 73.2966 87.5836C86.0976 75.4115 98.7472 63.0726 111.575 50.927C123.443 39.695 135.271 26.966 149.075 18.1248C165.324 7.72543 184.639 1.26285 203.736 0.246242C225.33 -0.903632 244.372 6.62951 259.341 21.9175C270.939 33.7577 280.554 48.5051 285.602 64.5763C291.191 82.3565 289.663 99.1835 280.776 115.792C267.623 140.357 247.722 160.463 228.177 180.038C205.262 202.984 182.207 225.872 157.303 246.669C146.14 255.991 132.971 269.167 119.47 274.62C116.673 275.75 113.785 276.721 110.829 277.533L110.825 277.529Z" fill="#C2BDE4"/>
</svg>
