<svg width="250" height="244" viewBox="0 0 250 244" fill="none" xmlns="http://www.w3.org/2000/svg">
<path d="M0.484231 5.72794C0.746914 4.63486 1.21331 3.59538 1.99064 2.79164C2.97704 1.77358 4.37623 1.23775 5.77542 1.0395C8.15029 0.701928 10.7181 1.00198 13.1198 0.996621C15.8914 0.996621 18.6683 0.996616 21.4399 0.991257C36.5469 0.980541 51.6485 0.760867 66.7501 0.535822C77.4986 0.375075 88.2418 0.214316 98.9904 0.0535691C100.164 0.0374944 101.338 0.0160747 102.512 0H167.427C183.349 0.24112 199.266 0.60549 215.182 0.782312C220.516 0.841252 225.85 0.878728 231.179 0.884086C233.806 0.884086 236.433 0.884103 239.059 0.868029C241.472 0.851954 244.286 0.423286 246.656 0.857302C247.342 0.985899 248.023 1.32882 248.387 1.92358C248.618 2.28794 248.714 2.72198 248.768 3.15064C249.283 7.11572 248.832 11.488 248.811 15.4906C248.521 64.32 249.079 113.128 249.079 161.947C249.497 179.474 248.521 196.904 248.527 214.404C248.527 219.135 248.537 223.861 248.564 228.592C248.575 230.478 248.623 232.365 248.575 234.251C248.548 235.231 248.457 236.201 248.42 237.176C248.178 244.254 234.958 242.851 230.6 242.722C223.936 242.524 217.3 242.781 210.641 242.808C195.068 242.867 179.489 242.926 163.916 242.979C146.096 243.022 128.277 243.054 110.457 243.033C92.552 243.011 74.6466 242.958 56.7359 242.893C40.6962 242.84 24.5331 242.197 8.50947 243.017C5.96841 243.145 2.81085 242.99 1.33125 240.471C0.827328 239.614 0.553924 238.826 0.462789 237.835C-0.314539 229.728 0.151856 221.686 0.350209 213.563C0.532479 206.034 0.698666 198.211 0.666501 190.678C0.575366 166.753 0.409179 142.823 0.409179 118.899C0.409179 87.146 0.40918 55.3397 0.221549 23.5922C0.189384 18.1643 -0.277013 12.5275 0.248353 7.12106C0.296601 6.64954 0.366292 6.17801 0.478871 5.71185L0.484231 5.72794Z" fill="white"/>
</svg>
