<svg width="303" height="234" viewBox="0 0 303 234" fill="none" xmlns="http://www.w3.org/2000/svg">
<path d="M144.508 0.564279C144.363 0.7411 144.239 0.944711 144.127 1.14832C142.669 3.74706 140.9 6.22256 139.275 8.7302C137.587 11.3343 135.893 13.933 134.188 16.5264C130.805 21.6757 127.396 26.8035 123.991 31.9313C120.582 37.0645 117.172 42.1923 113.79 47.3469C110.52 52.33 107.276 57.3292 104.081 62.3606C90.7111 83.4238 76.0705 104.439 62.7756 125.55C49.4538 146.704 37.4937 167.96 24.1611 189.109C20.2584 195.303 16.3503 201.497 12.4423 207.692C10.4855 210.789 8.53419 213.88 6.5721 216.977C4.84054 219.715 2.71763 222.202 1.17906 225.063C0.192658 226.89 -1.35664 230.871 2.33701 230.893C17.6959 230.989 33.0495 231.091 48.4084 231.187C84.7176 231.418 121.011 233.481 157.325 232.832C193.533 232.184 229.735 232.35 265.942 232.58C272.332 232.58 278.717 232.634 285.107 232.698C289.289 232.741 293.529 232.586 297.695 232.998C298.761 233.106 299.866 233.127 300.863 232.73C301.86 232.334 302.707 231.418 302.739 230.351C302.804 228.176 300.005 225.384 298.858 223.659C290.597 211.223 282.55 198.652 274.418 186.13C273.705 185.037 272.992 183.944 272.279 182.851C268.789 177.509 265.267 172.188 261.686 166.905C235.6 128.444 209.422 91.879 183.336 53.4124C174.491 40.3651 165.64 27.3179 156.795 14.276C153.626 9.60359 150.528 4.77048 146.582 0.666084C146.1 0.16777 145.451 -0.207305 144.797 0.285651C144.69 0.366025 144.593 0.462472 144.508 0.569636V0.564279Z" fill="#4495D1"/>
</svg>
